# 3ds Max Wavefront OBJ Exporter v0.97b - (c)2007 guruware
# File Created: 27.10.2012 14:24:09

mtllib scifiWall02_45_in.mtl

#
# object scifiWall02_45in
#

v  -2.4996 2.5000 2.4996
v  -2.4996 -2.5000 2.4996
v  2.4996 -2.5000 -2.4996
v  2.4996 2.5000 -2.4996
# 4 vertices

vn 0.7071 -0.0000 0.7071
# 1 vertex normals

vt 0.0005 0.9995 0.5000
vt 0.0005 0.0005 0.5000
vt 0.9995 0.0005 0.5000
vt 0.9995 0.9995 0.5000
# 4 texture coords

g scifiWall02_45in
usemtl Material__46
s 1
f 1/1/1 2/2/1 3/3/1 4/4/1 
# 1 polygons

