# 3ds Max Wavefront OBJ Exporter v0.97b - (c)2007 guruware
# File Created: 30.01.2013 00:57:18

#
# object wallprop02
#

v  1.0472 2.4808 -0.3452
v  -0.3639 2.4808 1.1261
v  -0.5446 1.8621 1.6721
v  1.6842 1.8621 -0.4647
v  1.2394 7.3767 -0.1695
v  -0.2183 7.3767 1.2882
v  -0.1445 5.8200 1.3536
v  1.3047 5.8200 -0.0956
v  0.8663 5.4336 -0.2306
v  -0.2105 5.4336 0.9840
v  -0.5570 0.0678 1.6482
v  1.6535 0.0678 -0.4840
v  -1.5883 -0.2251 0.9696
v  0.9873 -0.2251 -1.5277
v  0.5801 7.9111 -1.2201
v  -1.2675 7.9111 0.6275
v  1.0196 1.8621 -1.5099
v  -1.1925 5.8200 0.6918
v  0.3857 2.4808 -1.3936
v  0.1653 5.4336 -1.2395
v  0.6444 5.8200 -1.1451
v  -1.2180 5.4336 0.2816
v  -1.5773 1.8621 0.9950
v  -1.4109 2.4808 0.4632
# 24 vertices

vn 0.6740 0.3030 0.6737
vn 0.7060 0.2298 0.6699
vn 0.6921 0.1462 0.7068
vn 0.6818 0.1788 0.7093
vn 0.7057 0.0631 0.7057
vn 0.6857 -0.2442 0.6857
vn 0.6854 -0.2991 0.6639
vn 0.6712 -0.4280 0.6052
vn 0.6768 -0.3788 0.6313
vn 0.6927 -0.0161 0.7211
vn 0.6941 -0.0196 0.7196
vn 0.1637 -0.9719 0.1692
vn 0.2859 0.9146 0.2859
vn 0.8439 -0.0086 -0.5365
vn -0.5318 0.0084 0.8468
vn 0.8310 0.0815 -0.5503
vn 0.8477 0.0085 -0.5305
vn -0.4370 -0.6127 0.6585
vn -0.5483 -0.0073 0.8363
vn 0.6065 0.6962 -0.3842
vn -0.4058 0.6624 0.6298
vn 0.6429 -0.6371 -0.4252
vn -0.5518 0.0779 0.8303
# 23 vertex normals

vt 0.9203 0.3443 0.0000
vt 0.9203 0.1313 0.0000
vt 0.9929 0.0781 0.0000
vt 0.9929 0.3996 0.0000
vt 0.8685 0.8473 0.0000
vt 0.6612 0.8473 0.0000
vt 0.6612 0.6892 0.0000
vt 0.8685 0.6892 0.0000
vt 0.6107 0.3232 0.0000
vt 0.6107 0.1531 0.0000
vt 0.6287 0.4985 0.0000
vt 0.8909 0.4985 0.0000
vt 0.8909 0.6513 0.0000
vt 0.6287 0.6513 0.0000
vt 0.5552 0.3448 0.0000
vt 0.5552 0.1309 0.0000
vt 0.6056 0.3924 0.0000
vt 0.9107 0.3924 0.0000
vt 0.8981 0.9826 0.0000
vt 0.6329 0.9826 0.0000
vt 0.9970 0.4729 0.0000
vt 0.9970 0.6513 0.0000
vt 0.5337 0.9019 0.0000
vt 0.5337 0.6892 0.0000
vt 0.2257 0.3433 0.0000
vt 0.2257 0.8442 0.0000
vt 0.0176 0.8442 0.0000
vt 0.0176 0.3433 0.0000
vt 0.9949 0.6892 0.0000
vt 0.9949 0.9018 0.0000
vt 0.5074 0.8851 0.0000
vt 0.5537 0.9760 0.0000
vt 0.3294 0.9760 0.0000
vt 0.2858 0.8851 0.0000
vt 0.5235 0.6513 0.0000
vt 0.5235 0.4735 0.0000
vt 0.2660 0.9885 0.0000
vt 0.0586 0.9885 0.0000
vt 0.5338 0.2066 0.0000
vt 0.5074 0.3553 0.0000
vt 0.2858 0.3553 0.0000
vt 0.3116 0.2066 0.0000
vt 0.2855 0.2577 0.0000
vt 0.0768 0.2577 0.0000
# 44 texture coords

g wallprop02
s 8
f 1/1/1 2/2/2 3/3/3 4/4/4 
f 5/5/5 6/6/5 7/7/6 8/8/7 
f 9/9/8 10/10/9 2/2/2 1/1/1 
f 11/11/10 12/12/11 4/13/4 3/14/3 
f 8/15/7 7/16/6 10/10/9 9/9/8 
s off
f 12/12/12 11/11/12 13/17/12 14/18/12 
f 6/6/13 5/5/13 15/19/13 16/20/13 
f 4/13/14 12/12/14 14/21/14 17/22/14 
f 7/7/15 6/6/15 16/23/15 18/24/15 
f 9/25/16 1/26/16 19/27/16 20/28/16 
f 5/5/17 8/8/17 21/29/17 15/30/17 
f 10/31/18 7/32/18 18/33/18 22/34/18 
f 11/11/19 3/14/19 23/35/19 13/36/19 
f 1/26/20 4/37/20 17/38/20 19/27/20 
f 3/39/21 2/40/21 24/41/21 23/42/21 
f 8/43/22 9/25/22 20/28/22 21/44/22 
f 2/40/23 10/31/23 22/34/23 24/41/23 
# 17 polygons

