# 3ds Max Wavefront OBJ Exporter v0.97b - (c)2007 guruware
# File Created: 25.01.2013 18:59:44

#
# object wall02c
#

v  -0.8979 -2.3669 2.8117
v  -0.8979 -4.0000 2.8117
v  2.8117 -4.0000 -0.8979
v  2.8117 -2.3669 -0.8979
v  2.4239 -2.1028 -0.9316
v  -0.9316 -2.1028 2.4239
v  -0.9316 0.6987 2.4239
v  2.4239 0.6987 -0.9316
v  -0.8979 1.0343 2.8117
v  2.8117 1.0343 -0.8979
v  -0.8979 4.0000 2.8117
v  2.8117 4.0000 -0.8979
v  2.6000 4.2500 -1.6000
v  -1.6000 4.2500 2.6000
v  -1.5810 4.0000 2.8190
v  2.8190 4.0000 -1.5810
v  1.9867 4.2500 -1.6533
v  -1.6533 4.2500 1.9867
v  1.4040 4.0167 -1.7040
v  -1.7040 4.0167 1.4040
v  -2.0000 -2.3669 3.2381
v  -2.0000 -4.0000 3.2381
v  -1.5810 -4.0000 2.8190
v  -1.5810 -2.3669 2.8190
v  3.2381 -4.0000 -2.0000
v  3.2381 -2.3669 -2.0000
v  2.8190 -2.3669 -1.5810
v  2.8190 -4.0000 -1.5810
v  -2.0000 -2.1028 2.7381
v  -1.6210 -2.1028 2.3590
v  2.7381 -2.1028 -2.0000
v  2.3590 -2.1028 -1.6210
v  -2.0000 0.6987 2.7381
v  -1.6210 0.6987 2.3590
v  2.7381 0.6987 -2.0000
v  2.3590 0.6987 -1.6210
v  -1.5810 1.0343 2.8190
v  -2.0000 1.0343 3.2381
v  3.2381 1.0343 -2.0000
v  2.8190 1.0343 -1.5810
v  -2.0000 4.0000 3.2381
v  3.2381 4.0000 -2.0000
v  -2.0000 4.2500 3.0000
v  3.0000 4.2500 -2.0000
v  -2.0000 4.2500 2.3333
v  2.3333 4.2500 -2.0000
v  -2.0000 4.0167 1.7000
v  1.7000 4.0167 -2.0000
# 48 vertices

vn 0.7071 -0.0000 0.7071
vn 0.4690 0.7484 0.4690
vn 0.5287 -0.6640 0.5287
vn 0.5865 0.5586 0.5865
vn -0.0000 1.0000 -0.0000
vn 0.0000 1.0000 -0.0000
vn -0.3267 0.8868 -0.3267
vn 0.4232 0.8011 0.4232
vn 0.4868 -0.7252 0.4868
vn -0.0000 1.0000 0.0000
vn 0.9999 -0.0000 0.0107
vn 0.5005 0.8645 -0.0471
vn 0.5625 0.8268 0.0060
vn 0.9956 0.0000 -0.0937
vn 0.5891 -0.8081 0.0063
vn 0.6562 -0.7520 -0.0617
vn 0.0000 1.0000 0.0000
vn 0.0107 0.0000 0.9999
vn -0.0557 -0.8043 0.5917
vn 0.0070 -0.7564 0.6540
vn -0.0937 -0.0000 0.9956
vn 0.0053 0.8674 0.4976
vn -0.0532 0.8232 0.5653
vn 0.0107 -0.0000 0.9999
# 24 vertex normals

vt 0.1106 1.0000 0.0000
vt 0.1106 0.8329 0.0000
vt 0.6474 0.8329 0.0000
vt 0.6474 1.0000 0.0000
vt 0.9387 0.5179 0.0000
vt 0.9337 0.1338 0.0000
vt 0.9652 0.1132 0.0000
vt 0.9707 0.5378 0.0000
vt 0.1011 0.6180 0.0000
vt 0.1011 0.3283 0.0000
vt 0.5917 0.3283 0.0000
vt 0.5917 0.6180 0.0000
vt 0.7982 0.1123 0.0000
vt 0.8343 0.1323 0.0000
vt 0.8391 0.5179 0.0000
vt 0.8034 0.5387 0.0000
vt 0.1106 0.3034 0.0000
vt 0.1106 0.0000 0.0000
vt 0.6474 0.0000 0.0000
vt 0.6474 0.3034 0.0000
vt 0.7094 0.7144 0.0000
vt 0.0780 0.7144 0.0000
vt 0.0630 0.6932 0.0000
vt 0.7245 0.6932 0.0000
vt 0.6673 0.7641 0.0000
vt 0.1201 0.7641 0.0000
vt 0.6274 0.8080 0.0000
vt 0.1601 0.8080 0.0000
vt 0.0000 1.0000 0.0000
vt 0.0000 0.8329 0.0000
vt 0.0606 0.8329 0.0000
vt 0.0606 1.0000 0.0000
vt 0.7579 0.8329 0.0000
vt 0.7579 1.0000 0.0000
vt 0.6973 1.0000 0.0000
vt 0.6973 0.8329 0.0000
vt 0.8960 0.0554 0.0000
vt 0.9312 0.0263 0.0000
vt 0.9318 0.0743 0.0000
vt 0.8965 0.0988 0.0000
vt 0.9384 0.5779 0.0000
vt 0.9390 0.6259 0.0000
vt 0.9031 0.5977 0.0000
vt 0.9025 0.5543 0.0000
vt 0.0000 0.6180 0.0000
vt 0.0000 0.3283 0.0000
vt 0.0554 0.3283 0.0000
vt 0.0554 0.6180 0.0000
vt 0.6928 0.3283 0.0000
vt 0.6928 0.6180 0.0000
vt 0.6374 0.6180 0.0000
vt 0.6374 0.3283 0.0000
vt 0.8282 0.0720 0.0000
vt 0.8276 0.0239 0.0000
vt 0.8674 0.0521 0.0000
vt 0.8680 0.0957 0.0000
vt 0.8741 0.5967 0.0000
vt 0.8350 0.6259 0.0000
vt 0.8344 0.5777 0.0000
vt 0.8736 0.5531 0.0000
vt 0.0000 0.3034 0.0000
vt 0.0000 0.0000 0.0000
vt 0.0606 0.0000 0.0000
vt 0.0606 0.3034 0.0000
vt 0.7579 0.0000 0.0000
vt 0.7579 0.3034 0.0000
vt 0.6973 0.3034 0.0000
vt 0.6973 0.0000 0.0000
vt 0.0179 0.7144 0.0000
vt 0.0000 0.6932 0.0000
vt 0.7875 0.6932 0.0000
vt 0.7696 0.7144 0.0000
vt 0.0680 0.7641 0.0000
vt 0.7195 0.7641 0.0000
vt 0.1156 0.8080 0.0000
vt 0.6719 0.8080 0.0000
vt 0.1149 0.6428 0.0000
vt 0.6726 0.6428 0.0000
# 78 texture coords

g wall02c
s 2
f 1/1/1 2/2/1 3/3/1 
f 3/3/1 4/4/1 1/1/1 
s 4
f 5/5/2 6/6/2 1/7/2 
f 1/7/2 4/8/2 5/5/2 
s 2
f 7/9/1 6/10/1 5/11/1 
f 5/11/1 8/12/1 7/9/1 
s 4
f 9/13/3 7/14/3 8/15/3 
f 8/15/3 10/16/3 9/13/3 
s 2
f 11/17/1 9/18/1 10/19/1 
f 10/19/1 12/20/1 11/17/1 
s 4
f 13/21/4 14/22/4 15/23/4 
f 15/23/4 16/24/4 13/21/4 
s 2
f 17/25/5 18/26/5 14/22/5 
f 14/22/5 13/21/6 17/25/5 
s 4
f 19/27/7 20/28/7 18/26/7 
f 18/26/7 17/25/7 19/27/7 
s 2
f 21/29/1 22/30/1 23/31/1 
f 23/31/1 24/32/1 21/29/1 
f 25/33/1 26/34/1 27/35/1 
f 27/35/1 28/36/1 25/33/1 
s 4
f 29/37/8 21/38/8 24/39/8 
f 24/39/8 30/40/8 29/37/8 
f 27/41/8 26/42/8 31/43/8 
f 31/43/8 32/44/8 27/41/8 
s 2
f 33/45/1 29/46/1 30/47/1 
f 30/47/1 34/48/1 33/45/1 
f 31/49/1 35/50/1 36/51/1 
f 36/51/1 32/52/1 31/49/1 
s 4
f 37/53/9 38/54/9 33/55/9 
f 33/55/9 34/56/9 37/53/9 
f 35/57/9 39/58/9 40/59/9 
f 40/59/9 36/60/9 35/57/9 
s 2
f 41/61/1 38/62/1 37/63/1 
f 37/63/1 15/64/1 41/61/1 
f 39/65/1 42/66/1 16/67/1 
f 16/67/1 40/68/1 39/65/1 
s 4
f 43/69/4 41/70/4 15/23/4 
f 15/23/4 14/22/4 43/69/4 
f 16/24/4 42/71/4 44/72/4 
f 44/72/4 13/21/4 16/24/4 
s 2
f 45/73/5 43/69/5 14/22/5 
f 14/22/5 18/26/5 45/73/5 
f 13/21/6 44/72/10 46/74/10 
f 46/74/10 17/25/5 13/21/6 
s 4
f 47/75/7 45/73/7 18/26/7 
f 18/26/7 20/28/7 47/75/7 
f 17/25/7 46/74/7 48/76/7 
f 48/76/7 19/27/7 17/25/7 
s off
f 28/36/11 27/35/11 4/4/11 
f 4/4/11 3/3/11 28/36/11 
f 27/41/12 32/44/12 5/5/12 
f 5/5/13 4/8/13 27/41/13 
f 32/52/14 36/51/14 8/12/14 
f 8/12/14 5/11/14 32/52/14 
f 36/60/15 40/59/15 10/16/15 
f 10/16/16 8/15/16 36/60/16 
f 40/68/11 16/67/11 12/20/11 
f 12/20/11 10/19/11 40/68/11 
f 15/23/5 11/77/5 12/78/5 
f 12/78/17 16/24/17 15/23/17 
f 15/64/18 37/63/18 9/18/18 
f 9/18/18 11/17/18 15/64/18 
f 37/53/19 34/56/19 7/14/19 
f 7/14/20 9/13/20 37/53/20 
f 34/48/21 30/47/21 6/10/21 
f 6/10/21 7/9/21 34/48/21 
f 30/40/22 24/39/22 1/7/22 
f 1/7/23 6/6/23 30/40/23 
f 24/32/24 23/31/24 2/2/24 
f 2/2/24 1/1/24 24/32/24 
# 70 faces

