# 3ds Max Wavefront OBJ Exporter v0.97b - (c)2007 guruware
# File Created: 27.01.2013 19:40:26

#
# object wallprop01
#

v  0.7644 1.6847 -0.2782
v  0.8135 1.6847 -0.0000
v  0.8135 0.5667 -0.0000
v  0.7644 0.5667 -0.2782
v  0.6231 1.6847 -0.5229
v  0.6231 0.5667 -0.5229
v  0.4067 1.6847 -0.7045
v  0.4067 0.5667 -0.7045
v  0.1413 1.6847 -0.8011
v  0.1413 0.5967 -0.8011
v  -0.1413 1.6847 -0.8011
v  -0.1413 0.5967 -0.8011
v  -0.4067 1.6847 -0.7045
v  -0.4067 0.5967 -0.7045
v  -0.6231 1.6847 -0.5229
v  -0.6231 0.5967 -0.5229
v  -0.7644 1.6847 -0.2782
v  -0.7644 0.6044 -0.2782
v  -0.8135 1.6847 -0.0000
v  -0.8135 0.6044 -0.0000
v  -0.7644 1.6847 0.2782
v  -0.7644 0.6044 0.2782
v  -0.6231 1.6847 0.5229
v  -0.6231 0.5667 0.5229
v  -0.4067 1.6847 0.7045
v  -0.4067 0.5667 0.7045
v  -0.1413 1.6847 0.8011
v  -0.1413 0.5667 0.8011
v  0.1413 1.6847 0.8011
v  0.1413 0.5667 0.8011
v  0.4067 1.6847 0.7045
v  0.4067 0.5667 0.7045
v  0.6231 1.6847 0.5229
v  0.6231 0.5667 0.5229
v  0.7644 1.6847 0.2782
v  0.7644 0.5667 0.2782
v  0.5000 2.0809 -0.0000
v  0.4698 2.0809 -0.1710
v  0.4698 4.6217 -0.1710
v  0.5000 4.6217 -0.0000
v  0.3830 2.0809 -0.3214
v  0.3830 4.6217 -0.3214
v  0.2500 2.0809 -0.4330
v  0.2500 4.6217 -0.4330
v  0.0868 2.0809 -0.4924
v  0.0868 4.6217 -0.4924
v  -0.0868 2.0809 -0.4924
v  -0.0868 4.6217 -0.4924
v  -0.2500 2.0809 -0.4330
v  -0.2500 4.6217 -0.4330
v  -0.3830 2.0809 -0.3214
v  -0.3830 4.6217 -0.3214
v  -0.4698 2.0809 -0.1710
v  -0.4698 4.6217 -0.1710
v  -0.5000 2.0809 -0.0000
v  -0.5000 4.6217 -0.0000
v  -0.4698 2.0809 0.1710
v  -0.4698 4.6217 0.1710
v  -0.3830 2.0809 0.3214
v  -0.3830 4.6217 0.3214
v  -0.2500 2.0809 0.4330
v  -0.2500 4.6217 0.4330
v  -0.0868 2.0809 0.4924
v  -0.0868 4.6217 0.4924
v  0.0868 2.0809 0.4924
v  0.0868 4.6217 0.4924
v  0.2500 2.0809 0.4330
v  0.2500 4.6217 0.4330
v  0.3830 2.0809 0.3214
v  0.3830 4.6217 0.3214
v  0.4698 2.0809 0.1710
v  0.4698 4.6217 0.1710
v  0.7334 5.1000 -0.2670
v  0.7805 5.1000 -0.0000
v  0.5979 5.1000 -0.5017
v  0.3903 5.1000 -0.6759
v  0.1355 5.1000 -0.7687
v  -0.1355 5.1000 -0.7687
v  -0.3903 5.1000 -0.6759
v  -0.5979 5.1000 -0.5017
v  -0.7334 5.1000 -0.2670
v  -0.7805 5.1000 -0.0000
v  -0.7334 5.1000 0.2670
v  -0.5979 5.1000 0.5017
v  -0.3903 5.1000 0.6759
v  -0.1355 5.1000 0.7687
v  0.1355 5.1000 0.7687
v  0.3903 5.1000 0.6759
v  0.5979 5.1000 0.5017
v  0.7334 5.1000 0.2670
v  0.7334 6.8000 -0.2670
v  0.7805 6.8000 -0.0000
v  0.5979 6.8000 -0.5017
v  0.3903 6.8000 -0.6759
v  0.1355 6.8000 -0.7687
v  -0.1355 6.8000 -0.7687
v  -0.3903 6.8000 -0.6759
v  -0.5979 6.8000 -0.5017
v  -0.7334 6.8000 -0.2670
v  -0.7805 6.8000 -0.0000
v  -0.7334 6.8000 0.2670
v  -0.5979 6.8000 0.5017
v  -0.3903 6.8000 0.6759
v  -0.1355 6.8000 0.7687
v  0.1355 6.8000 0.7687
v  0.3903 6.8000 0.6759
v  0.5979 6.8000 0.5017
v  0.7334 6.8000 0.2670
v  0.7334 8.2609 -0.2670
v  0.7805 8.2609 -0.0000
v  0.5979 8.2609 -0.5017
v  0.3903 8.2609 -0.6759
v  0.1355 8.2609 -0.7687
v  -0.1355 8.2609 -0.7687
v  -0.3903 8.2609 -0.6759
v  -0.5979 8.2609 -0.5017
v  -0.7334 8.2609 -0.2670
v  -0.7805 8.2609 -0.0000
v  -0.7334 8.2609 0.2670
v  -0.5979 8.2609 0.5017
v  -0.3903 8.2609 0.6759
v  -0.1355 8.2609 0.7687
v  0.1355 8.2609 0.7687
v  0.3903 8.2609 0.6759
v  0.5979 8.2609 0.5017
v  0.7334 8.2609 0.2670
v  0.7644 0.0000 -0.2782
v  0.8135 0.0000 -0.0000
v  0.4067 -0.2664 -0.0000
v  0.3822 -0.2664 -0.1391
v  0.6231 0.0000 -0.5229
v  0.3116 -0.2664 -0.2614
v  0.4067 0.0000 -0.7045
v  0.2034 -0.2664 -0.3522
v  0.1413 0.0000 -0.8011
v  0.0706 -0.2664 -0.4005
v  -0.1413 0.0000 -0.8011
v  -0.0706 -0.2664 -0.4005
v  -0.4067 0.0000 -0.7045
v  -0.2034 -0.2664 -0.3522
v  -0.6231 0.0000 -0.5229
v  -0.3116 -0.2664 -0.2614
v  -0.7644 0.0000 -0.2782
v  -0.3822 -0.2664 -0.1391
v  -0.8135 0.0000 -0.0000
v  -0.4067 -0.2664 -0.0000
v  -0.7644 0.0000 0.2782
v  -0.3822 -0.2664 0.1391
v  -0.6231 0.0000 0.5229
v  -0.3116 -0.2664 0.2614
v  -0.4067 0.0000 0.7045
v  -0.2034 -0.2664 0.3522
v  -0.1413 0.0000 0.8011
v  -0.0706 -0.2664 0.4005
v  0.1413 0.0000 0.8011
v  0.0706 -0.2664 0.4005
v  0.4067 0.0000 0.7045
v  0.2034 -0.2664 0.3522
v  0.6231 0.0000 0.5229
v  0.3116 -0.2664 0.2614
v  0.7644 0.0000 0.2782
v  0.3822 -0.2664 0.1391
v  0.0000 -0.2664 -0.0000
v  0.3667 8.5000 -0.1335
v  0.3903 8.5000 -0.0000
v  0.2990 8.5000 -0.2509
v  0.1951 8.5000 -0.3380
v  0.0678 8.5000 -0.3843
v  -0.0678 8.5000 -0.3843
v  -0.1951 8.5000 -0.3380
v  -0.2990 8.5000 -0.2509
v  -0.3667 8.5000 -0.1335
v  -0.3903 8.5000 -0.0000
v  -0.3667 8.5000 0.1335
v  -0.2990 8.5000 0.2509
v  -0.1951 8.5000 0.3380
v  -0.0678 8.5000 0.3843
v  0.0678 8.5000 0.3843
v  0.1951 8.5000 0.3380
v  0.2990 8.5000 0.2509
v  0.3667 8.5000 0.1335
v  0.0000 8.5000 -0.0000
# 182 vertices

vn 0.8910 0.3177 -0.3243
vn 0.9482 0.3177 0.0000
vn 1.0000 0.0000 0.0000
vn 0.9397 0.0000 -0.3420
vn 0.7264 0.3177 -0.6095
vn 0.7660 0.0000 -0.6428
vn 0.4741 0.3177 -0.8212
vn 0.5000 0.0000 -0.8660
vn 0.1647 0.3177 -0.9338
vn 0.1736 0.0000 -0.9848
vn -0.1647 0.3177 -0.9338
vn -0.1736 0.0000 -0.9848
vn -0.4741 0.3177 -0.8212
vn -0.5000 0.0000 -0.8660
vn -0.7264 0.3177 -0.6095
vn -0.7660 0.0000 -0.6428
vn -0.8910 0.3177 -0.3243
vn -0.9397 0.0000 -0.3420
vn -0.9482 0.3177 -0.0000
vn -1.0000 -0.0000 -0.0000
vn -0.8910 0.3177 0.3243
vn -0.9397 -0.0000 0.3420
vn -0.7264 0.3177 0.6095
vn -0.7660 0.0000 0.6428
vn -0.4741 0.3177 0.8212
vn -0.5000 0.0000 0.8660
vn -0.1647 0.3177 0.9338
vn -0.1736 0.0000 0.9848
vn 0.1647 0.3177 0.9338
vn 0.1736 -0.0000 0.9848
vn 0.4741 0.3177 0.8212
vn 0.5000 -0.0000 0.8660
vn 0.7264 0.3177 0.6095
vn 0.7660 0.0000 0.6428
vn 0.8910 0.3177 0.3243
vn 0.9397 0.0000 0.3420
vn 0.9403 0.3403 0.0000
vn 0.8836 0.3403 -0.3216
vn 0.9049 -0.2698 -0.3293
vn 0.9629 -0.2697 0.0000
vn 0.7203 0.3403 -0.6044
vn 0.7376 -0.2697 -0.6190
vn 0.4702 0.3403 -0.8143
vn 0.4815 -0.2697 -0.8339
vn 0.1633 0.3403 -0.9260
vn 0.1672 -0.2698 -0.9483
vn -0.1633 0.3403 -0.9260
vn -0.1672 -0.2697 -0.9483
vn -0.4702 0.3403 -0.8143
vn -0.4815 -0.2698 -0.8339
vn -0.7203 0.3403 -0.6044
vn -0.7376 -0.2697 -0.6190
vn -0.8836 0.3403 -0.3216
vn -0.9049 -0.2698 -0.3293
vn -0.9403 0.3403 -0.0000
vn -0.9629 -0.2697 -0.0000
vn -0.8836 0.3403 0.3216
vn -0.9049 -0.2697 0.3293
vn -0.7203 0.3403 0.6044
vn -0.7376 -0.2697 0.6190
vn -0.4702 0.3403 0.8143
vn -0.4815 -0.2697 0.8339
vn -0.1633 0.3403 0.9260
vn -0.1672 -0.2697 0.9483
vn 0.1633 0.3403 0.9260
vn 0.1672 -0.2697 0.9483
vn 0.4702 0.3403 0.8143
vn 0.4815 -0.2698 0.8339
vn 0.7203 0.3403 0.6044
vn 0.7376 -0.2697 0.6190
vn 0.8836 0.3403 0.3216
vn 0.9049 -0.2698 0.3293
vn 0.9086 -0.2551 -0.3307
vn 0.9669 -0.2551 0.0000
vn 0.7407 -0.2551 -0.6215
vn 0.4835 -0.2551 -0.8374
vn 0.1679 -0.2551 -0.9522
vn -0.1679 -0.2551 -0.9522
vn -0.4835 -0.2551 -0.8374
vn -0.7407 -0.2551 -0.6215
vn -0.9086 -0.2551 -0.3307
vn -0.9669 -0.2551 -0.0000
vn -0.9086 -0.2551 0.3307
vn -0.7407 -0.2551 0.6215
vn -0.4835 -0.2551 0.8374
vn -0.1679 -0.2551 0.9522
vn 0.1679 -0.2551 0.9522
vn 0.4835 -0.2551 0.8374
vn 0.7407 -0.2551 0.6215
vn 0.9086 -0.2551 0.3307
vn -1.0000 0.0000 -0.0000
vn -0.9397 0.0000 0.3420
vn 0.1736 0.0000 0.9848
vn 0.5000 0.0000 0.8660
vn 0.5148 -0.8366 -0.1874
vn 0.5479 -0.8366 0.0000
vn 0.3145 -0.9493 0.0000
vn 0.2955 -0.9493 -0.1076
vn 0.4197 -0.8366 -0.3522
vn 0.2409 -0.9493 -0.2021
vn 0.2739 -0.8366 -0.4745
vn 0.1572 -0.9493 -0.2723
vn 0.0951 -0.8366 -0.5395
vn 0.0546 -0.9493 -0.3097
vn -0.0951 -0.8366 -0.5395
vn -0.0546 -0.9493 -0.3097
vn -0.2739 -0.8366 -0.4745
vn -0.1572 -0.9493 -0.2723
vn -0.4197 -0.8366 -0.3522
vn -0.2409 -0.9493 -0.2021
vn -0.5148 -0.8366 -0.1874
vn -0.2955 -0.9493 -0.1076
vn -0.5479 -0.8366 -0.0000
vn -0.3145 -0.9493 -0.0000
vn -0.5148 -0.8366 0.1874
vn -0.2955 -0.9493 0.1076
vn -0.4197 -0.8366 0.3522
vn -0.2409 -0.9493 0.2021
vn -0.2739 -0.8366 0.4745
vn -0.1572 -0.9493 0.2723
vn -0.0951 -0.8366 0.5395
vn -0.0546 -0.9493 0.3097
vn 0.0951 -0.8366 0.5395
vn 0.0546 -0.9493 0.3097
vn 0.2739 -0.8366 0.4745
vn 0.1572 -0.9493 0.2723
vn 0.4197 -0.8366 0.3522
vn 0.2409 -0.9493 0.2021
vn 0.5148 -0.8366 0.1874
vn 0.2955 -0.9493 0.1076
vn 0.0000 -1.0000 -0.0000
vn 0.5224 0.8527 0.0000
vn 0.4909 0.8527 -0.1787
vn 0.2808 0.9543 -0.1022
vn 0.2989 0.9543 0.0000
vn 0.4002 0.8527 -0.3358
vn 0.2289 0.9543 -0.1921
vn 0.2612 0.8527 -0.4524
vn 0.1494 0.9543 -0.2588
vn 0.0907 0.8527 -0.5145
vn 0.0519 0.9543 -0.2943
vn -0.0907 0.8527 -0.5145
vn -0.0519 0.9543 -0.2943
vn -0.2612 0.8527 -0.4524
vn -0.1494 0.9543 -0.2588
vn -0.4002 0.8527 -0.3358
vn -0.2289 0.9543 -0.1921
vn -0.4909 0.8527 -0.1787
vn -0.2808 0.9543 -0.1022
vn -0.5224 0.8527 -0.0000
vn -0.2989 0.9543 -0.0000
vn -0.4909 0.8527 0.1787
vn -0.2808 0.9543 0.1022
vn -0.4002 0.8527 0.3358
vn -0.2289 0.9543 0.1921
vn -0.2612 0.8527 0.4524
vn -0.1494 0.9543 0.2588
vn -0.0907 0.8527 0.5145
vn -0.0519 0.9543 0.2943
vn 0.0907 0.8527 0.5145
vn 0.0519 0.9543 0.2943
vn 0.2612 0.8527 0.4524
vn 0.1494 0.9543 0.2588
vn 0.4002 0.8527 0.3358
vn 0.2289 0.9543 0.1921
vn 0.4909 0.8527 0.1787
vn 0.2808 0.9543 0.1022
vn 0.0000 1.0000 -0.0000
# 168 vertex normals

vt 0.9866 0.6264 -0.0026
vt 0.9866 0.6635 -0.0034
vt 0.8385 0.6635 -0.0034
vt 0.8385 0.6264 -0.0026
vt 0.9866 0.5895 -0.0005
vt 0.8385 0.5895 -0.0005
vt 0.9866 0.5530 0.0019
vt 0.8385 0.5530 0.0019
vt 0.9866 0.5169 0.0034
vt 0.8425 0.5169 0.0034
vt 0.9866 0.4808 0.0034
vt 0.8425 0.4808 0.0034
vt 0.9866 0.4447 0.0019
vt 0.8425 0.4447 0.0019
vt 0.9866 0.4082 -0.0005
vt 0.8425 0.4082 -0.0005
vt 0.9866 0.3713 -0.0026
vt 0.8435 0.3713 -0.0026
vt 0.9866 0.3342 -0.0034
vt 0.8435 0.3342 -0.0034
vt 0.9866 0.2971 -0.0026
vt 0.8435 0.2971 -0.0026
vt 0.9866 0.2602 -0.0005
vt 0.8385 0.2602 -0.0005
vt 0.9866 0.2237 0.0019
vt 0.8385 0.2237 0.0019
vt 0.9866 0.1875 0.0034
vt 0.8385 0.1875 0.0034
vt 0.9866 0.1515 0.0034
vt 0.8385 0.1515 0.0034
vt 0.9866 0.1153 0.0019
vt 0.8385 0.1153 0.0019
vt 0.9866 0.0788 -0.0005
vt 0.8385 0.0788 -0.0005
vt 0.9866 0.0420 -0.0026
vt 0.8385 0.0420 -0.0026
vt 0.9866 0.0049 -0.0034
vt 0.8385 0.0049 -0.0034
vt 0.4347 0.9389 -0.1582
vt 0.4111 0.9389 -0.1574
vt 0.4111 0.6267 -0.1574
vt 0.4347 0.6267 -0.1582
vt 0.3876 0.9389 -0.1551
vt 0.3876 0.6267 -0.1551
vt 0.3643 0.9389 -0.1526
vt 0.3643 0.6267 -0.1526
vt 0.3413 0.9389 -0.1510
vt 0.3413 0.6267 -0.1510
vt 0.3183 0.9389 -0.1510
vt 0.3183 0.6267 -0.1510
vt 0.2953 0.9389 -0.1526
vt 0.2953 0.6267 -0.1526
vt 0.2720 0.9389 -0.1551
vt 0.2720 0.6267 -0.1551
vt 0.2485 0.9389 -0.1574
vt 0.2485 0.6267 -0.1574
vt 0.2249 0.9389 -0.1582
vt 0.2249 0.6267 -0.1582
vt 0.2012 0.9389 -0.1574
vt 0.2012 0.6267 -0.1574
vt 0.1778 0.9389 -0.1551
vt 0.1778 0.6267 -0.1551
vt 0.1545 0.9389 -0.1526
vt 0.1545 0.6267 -0.1526
vt 0.1315 0.9389 -0.1510
vt 0.1315 0.6267 -0.1510
vt 0.1085 0.9389 -0.1510
vt 0.1085 0.6267 -0.1510
vt 0.0854 0.9389 -0.1526
vt 0.0854 0.6267 -0.1526
vt 0.0622 0.9389 -0.1551
vt 0.0622 0.6267 -0.1551
vt 0.0387 0.9389 -0.1574
vt 0.0387 0.6267 -0.1574
vt 0.0151 0.9389 -0.1582
vt 0.0151 0.6267 -0.1582
vt 0.4111 0.5679 0.1158
vt 0.4347 0.5679 0.1144
vt 0.3876 0.5679 0.1193
vt 0.3643 0.5679 0.1232
vt 0.3413 0.5679 0.1258
vt 0.3183 0.5679 0.1258
vt 0.2953 0.5679 0.1232
vt 0.2720 0.5679 0.1193
vt 0.2485 0.5679 0.1158
vt 0.2249 0.5679 0.1144
vt 0.2012 0.5679 0.1158
vt 0.1778 0.5679 0.1193
vt 0.1545 0.5679 0.1232
vt 0.1315 0.5679 0.1258
vt 0.1085 0.5679 0.1258
vt 0.0854 0.5679 0.1232
vt 0.0622 0.5679 0.1193
vt 0.0387 0.5679 0.1158
vt 0.0151 0.5679 0.1144
vt 0.0035 0.0017 -0.0056
vt 0.0453 0.0017 -0.0043
vt 0.0453 0.2872 -0.0043
vt 0.0035 0.2872 -0.0056
vt 0.0869 0.0017 -0.0008
vt 0.0869 0.2872 -0.0008
vt 0.1281 0.0017 0.0031
vt 0.1281 0.2872 0.0031
vt 0.1689 0.0017 0.0056
vt 0.1689 0.2872 0.0056
vt 0.2096 0.0017 0.0056
vt 0.2096 0.2872 0.0056
vt 0.2504 0.0017 0.0031
vt 0.2504 0.2872 0.0031
vt 0.2915 0.0017 -0.0008
vt 0.2915 0.2872 -0.0008
vt 0.3331 0.0017 -0.0043
vt 0.3331 0.2872 -0.0043
vt 0.3750 0.0017 -0.0056
vt 0.3750 0.2872 -0.0056
vt 0.4169 0.0017 -0.0043
vt 0.4169 0.2872 -0.0043
vt 0.4585 0.0017 -0.0008
vt 0.4585 0.2872 -0.0008
vt 0.4996 0.0017 0.0031
vt 0.4996 0.2872 0.0031
vt 0.5404 0.0017 0.0056
vt 0.5404 0.2872 0.0056
vt 0.5811 0.0017 0.0056
vt 0.5811 0.2872 0.0056
vt 0.6219 0.0017 0.0031
vt 0.6219 0.2872 0.0031
vt 0.6631 0.0017 -0.0008
vt 0.6631 0.2872 -0.0008
vt 0.7047 0.0017 -0.0043
vt 0.7047 0.2872 -0.0043
vt 0.7465 0.0017 -0.0056
vt 0.7465 0.2872 -0.0056
vt 0.0453 0.5325 -0.0043
vt 0.0035 0.5325 -0.0056
vt 0.0869 0.5325 -0.0008
vt 0.1281 0.5325 0.0031
vt 0.1689 0.5325 0.0056
vt 0.2096 0.5325 0.0056
vt 0.2504 0.5325 0.0031
vt 0.2915 0.5325 -0.0008
vt 0.3331 0.5325 -0.0043
vt 0.3750 0.5325 -0.0056
vt 0.4169 0.5325 -0.0043
vt 0.4585 0.5325 -0.0008
vt 0.4996 0.5325 0.0031
vt 0.5404 0.5325 0.0056
vt 0.5811 0.5325 0.0056
vt 0.6219 0.5325 0.0031
vt 0.6631 0.5325 -0.0008
vt 0.7047 0.5325 -0.0043
vt 0.7465 0.5325 -0.0056
vt 0.7155 0.8911 0.0000
vt 0.7086 0.8434 0.0000
vt 0.7772 0.8454 0.0000
vt 0.7807 0.8693 0.0000
vt 0.7382 0.9335 0.0000
vt 0.7920 0.8905 0.0000
vt 0.7738 0.9656 0.0000
vt 0.8099 0.9065 0.0000
vt 0.8182 0.9834 0.0000
vt 0.8320 0.9154 0.0000
vt 0.8659 0.9848 0.0000
vt 0.8559 0.9161 0.0000
vt 0.9112 0.9696 0.0000
vt 0.8785 0.9085 0.0000
vt 0.9486 0.9397 0.0000
vt 0.8973 0.8935 0.0000
vt 0.9736 0.8986 0.0000
vt 0.9098 0.8730 0.0000
vt 0.9833 0.8514 0.0000
vt 0.9146 0.8494 0.0000
vt 0.9763 0.8037 0.0000
vt 0.9111 0.8256 0.0000
vt 0.9537 0.7613 0.0000
vt 0.8998 0.8043 0.0000
vt 0.9180 0.7292 0.0000
vt 0.8820 0.7883 0.0000
vt 0.8737 0.7114 0.0000
vt 0.8598 0.7794 0.0000
vt 0.8260 0.7101 0.0000
vt 0.8359 0.7787 0.0000
vt 0.7807 0.7252 0.0000
vt 0.8133 0.7863 0.0000
vt 0.7432 0.7551 0.0000
vt 0.7946 0.8013 0.0000
vt 0.7182 0.7962 0.0000
vt 0.7821 0.8218 0.0000
vt 0.8459 0.8474 0.0000
vt 0.7262 0.6436 0.0000
vt 0.7334 0.6896 0.0000
vt 0.6671 0.6885 0.0000
vt 0.6635 0.6655 0.0000
vt 0.7247 0.7354 0.0000
vt 0.6627 0.7114 0.0000
vt 0.7010 0.7754 0.0000
vt 0.6509 0.7314 0.0000
vt 0.6652 0.8048 0.0000
vt 0.6330 0.7461 0.0000
vt 0.6216 0.8200 0.0000
vt 0.6112 0.7537 0.0000
vt 0.5756 0.8192 0.0000
vt 0.5882 0.7533 0.0000
vt 0.5326 0.8025 0.0000
vt 0.5667 0.7449 0.0000
vt 0.4978 0.7719 0.0000
vt 0.5493 0.7296 0.0000
vt 0.4755 0.7312 0.0000
vt 0.5381 0.7093 0.0000
vt 0.4682 0.6851 0.0000
vt 0.5345 0.6862 0.0000
vt 0.4770 0.6393 0.0000
vt 0.5389 0.6634 0.0000
vt 0.5007 0.5994 0.0000
vt 0.5508 0.6434 0.0000
vt 0.5365 0.5700 0.0000
vt 0.5686 0.6287 0.0000
vt 0.5800 0.5548 0.0000
vt 0.5904 0.6211 0.0000
vt 0.6260 0.5556 0.0000
vt 0.6134 0.6215 0.0000
vt 0.6691 0.5722 0.0000
vt 0.6349 0.6298 0.0000
vt 0.7038 0.6028 0.0000
vt 0.6523 0.6451 0.0000
vt 0.6008 0.6874 0.0000
vt 0.4347 0.9875 0.1464
vt 0.4111 0.9875 0.1479
vt 0.7635 0.6635 -0.0034
vt 0.7635 0.6264 -0.0026
vt 0.3876 0.9875 0.1515
vt 0.7635 0.5895 -0.0005
vt 0.3643 0.9875 0.1556
vt 0.7635 0.5530 0.0019
vt 0.3413 0.9875 0.1582
vt 0.7635 0.5169 0.0034
vt 0.3183 0.9875 0.1582
vt 0.7635 0.4808 0.0034
vt 0.2953 0.9875 0.1556
vt 0.7635 0.4447 0.0019
vt 0.2720 0.9875 0.1515
vt 0.7635 0.4082 -0.0005
vt 0.2485 0.9875 0.1479
vt 0.7635 0.3713 -0.0026
vt 0.2249 0.9875 0.1464
vt 0.7635 0.3342 -0.0034
vt 0.2012 0.9875 0.1479
vt 0.7635 0.2971 -0.0026
vt 0.1778 0.9875 0.1515
vt 0.7635 0.2602 -0.0005
vt 0.1545 0.9875 0.1556
vt 0.7635 0.2237 0.0019
vt 0.1315 0.9875 0.1582
vt 0.7635 0.1875 0.0034
vt 0.1085 0.9875 0.1582
vt 0.7635 0.1515 0.0034
vt 0.0854 0.9875 0.1556
vt 0.7635 0.1153 0.0019
vt 0.0622 0.9875 0.1515
vt 0.7635 0.0788 -0.0005
vt 0.0387 0.9875 0.1479
vt 0.7635 0.0420 -0.0026
vt 0.0151 0.9875 0.1464
vt 0.7635 0.0049 -0.0034
# 264 texture coords

g wallprop01
s 8
f 1/1/1 2/2/2 3/3/3 4/4/4 
f 5/5/5 1/1/1 4/4/4 6/6/6 
f 7/7/7 5/5/5 6/6/6 8/8/8 
f 9/9/9 7/7/7 8/8/8 10/10/10 
f 11/11/11 9/9/9 10/10/10 12/12/12 
f 13/13/13 11/11/11 12/12/12 14/14/14 
f 15/15/15 13/13/13 14/14/14 16/16/16 
f 17/17/17 15/15/15 16/16/16 18/18/18 
f 19/19/19 17/17/17 18/18/18 20/20/20 
f 21/21/21 19/19/19 20/20/20 22/22/22 
f 23/23/23 21/21/21 22/22/22 24/24/24 
f 25/25/25 23/23/23 24/24/24 26/26/26 
f 27/27/27 25/25/25 26/26/26 28/28/28 
f 29/29/29 27/27/27 28/28/28 30/30/30 
f 31/31/31 29/29/29 30/30/30 32/32/32 
f 33/33/33 31/31/31 32/32/32 34/34/34 
f 35/35/35 33/33/33 34/34/34 36/36/36 
f 2/37/2 35/35/35 36/36/36 3/38/3 
f 37/39/37 38/40/38 39/41/39 40/42/40 
f 38/40/38 41/43/41 42/44/42 39/41/39 
f 41/43/41 43/45/43 44/46/44 42/44/42 
f 43/45/43 45/47/45 46/48/46 44/46/44 
f 45/47/45 47/49/47 48/50/48 46/48/46 
f 47/49/47 49/51/49 50/52/50 48/50/48 
f 49/51/49 51/53/51 52/54/52 50/52/50 
f 51/53/51 53/55/53 54/56/54 52/54/52 
f 53/55/53 55/57/55 56/58/56 54/56/54 
f 55/57/55 57/59/57 58/60/58 56/58/56 
f 57/59/57 59/61/59 60/62/60 58/60/58 
f 59/61/59 61/63/61 62/64/62 60/62/60 
f 61/63/61 63/65/63 64/66/64 62/64/62 
f 63/65/63 65/67/65 66/68/66 64/66/64 
f 65/67/65 67/69/67 68/70/68 66/68/66 
f 67/69/67 69/71/69 70/72/70 68/70/68 
f 69/71/69 71/73/71 72/74/72 70/72/70 
f 71/73/71 37/75/37 40/76/40 72/74/72 
f 40/42/40 39/41/39 73/77/73 74/78/74 
f 39/41/39 42/44/42 75/79/75 73/77/73 
f 42/44/42 44/46/44 76/80/76 75/79/75 
f 44/46/44 46/48/46 77/81/77 76/80/76 
f 46/48/46 48/50/48 78/82/78 77/81/77 
f 48/50/48 50/52/50 79/83/79 78/82/78 
f 50/52/50 52/54/52 80/84/80 79/83/79 
f 52/54/52 54/56/54 81/85/81 80/84/80 
f 54/56/54 56/58/56 82/86/82 81/85/81 
f 56/58/56 58/60/58 83/87/83 82/86/82 
f 58/60/58 60/62/60 84/88/84 83/87/83 
f 60/62/60 62/64/62 85/89/85 84/88/84 
f 62/64/62 64/66/64 86/90/86 85/89/85 
f 64/66/64 66/68/66 87/91/87 86/90/86 
f 66/68/66 68/70/68 88/92/88 87/91/87 
f 68/70/68 70/72/70 89/93/89 88/92/88 
f 70/72/70 72/74/72 90/94/90 89/93/89 
f 72/74/72 40/76/40 74/95/74 90/94/90 
f 74/96/74 73/97/73 91/98/4 92/99/3 
f 73/97/73 75/100/75 93/101/6 91/98/4 
f 75/100/75 76/102/76 94/103/8 93/101/6 
f 76/102/76 77/104/77 95/105/10 94/103/8 
f 77/104/77 78/106/78 96/107/12 95/105/10 
f 78/106/78 79/108/79 97/109/14 96/107/12 
f 79/108/79 80/110/80 98/111/16 97/109/14 
f 80/110/80 81/112/81 99/113/18 98/111/16 
f 81/112/81 82/114/82 100/115/91 99/113/18 
f 82/114/82 83/116/83 101/117/92 100/115/91 
f 83/116/83 84/118/84 102/119/24 101/117/92 
f 84/118/84 85/120/85 103/121/26 102/119/24 
f 85/120/85 86/122/86 104/123/28 103/121/26 
f 86/122/86 87/124/87 105/125/93 104/123/28 
f 87/124/87 88/126/88 106/127/94 105/125/93 
f 88/126/88 89/128/89 107/129/34 106/127/94 
f 89/128/89 90/130/90 108/131/36 107/129/34 
f 90/130/90 74/132/74 92/133/3 108/131/36 
f 92/99/3 91/98/4 109/134/4 110/135/3 
f 91/98/4 93/101/6 111/136/6 109/134/4 
f 93/101/6 94/103/8 112/137/8 111/136/6 
f 94/103/8 95/105/10 113/138/10 112/137/8 
f 95/105/10 96/107/12 114/139/12 113/138/10 
f 96/107/12 97/109/14 115/140/14 114/139/12 
f 97/109/14 98/111/16 116/141/16 115/140/14 
f 98/111/16 99/113/18 117/142/18 116/141/16 
f 99/113/18 100/115/91 118/143/91 117/142/18 
f 100/115/91 101/117/92 119/144/92 118/143/91 
f 101/117/92 102/119/24 120/145/24 119/144/92 
f 102/119/24 103/121/26 121/146/26 120/145/24 
f 103/121/26 104/123/28 122/147/28 121/146/26 
f 104/123/28 105/125/93 123/148/93 122/147/28 
f 105/125/93 106/127/94 124/149/94 123/148/93 
f 106/127/94 107/129/34 125/150/34 124/149/94 
f 107/129/34 108/131/36 126/151/36 125/150/34 
f 108/131/36 92/133/3 110/152/3 126/151/36 
s 1
f 127/153/95 128/154/96 129/155/97 130/156/98 
f 131/157/99 127/153/95 130/156/98 132/158/100 
f 133/159/101 131/157/99 132/158/100 134/160/102 
f 135/161/103 133/159/101 134/160/102 136/162/104 
f 137/163/105 135/161/103 136/162/104 138/164/106 
f 139/165/107 137/163/105 138/164/106 140/166/108 
f 141/167/109 139/165/107 140/166/108 142/168/110 
f 143/169/111 141/167/109 142/168/110 144/170/112 
f 145/171/113 143/169/111 144/170/112 146/172/114 
f 147/173/115 145/171/113 146/172/114 148/174/116 
f 149/175/117 147/173/115 148/174/116 150/176/118 
f 151/177/119 149/175/117 150/176/118 152/178/120 
f 153/179/121 151/177/119 152/178/120 154/180/122 
f 155/181/123 153/179/121 154/180/122 156/182/124 
f 157/183/125 155/181/123 156/182/124 158/184/126 
f 159/185/127 157/183/125 158/184/126 160/186/128 
f 161/187/129 159/185/127 160/186/128 162/188/130 
f 128/154/96 161/187/129 162/188/130 129/155/97 
f 130/156/98 129/155/97 163/189/131 
f 132/158/100 130/156/98 163/189/131 
f 134/160/102 132/158/100 163/189/131 
f 136/162/104 134/160/102 163/189/131 
f 138/164/106 136/162/104 163/189/131 
f 140/166/108 138/164/106 163/189/131 
f 142/168/110 140/166/108 163/189/131 
f 144/170/112 142/168/110 163/189/131 
f 146/172/114 144/170/112 163/189/131 
f 148/174/116 146/172/114 163/189/131 
f 150/176/118 148/174/116 163/189/131 
f 152/178/120 150/176/118 163/189/131 
f 154/180/122 152/178/120 163/189/131 
f 156/182/124 154/180/122 163/189/131 
f 158/184/126 156/182/124 163/189/131 
f 160/186/128 158/184/126 163/189/131 
f 162/188/130 160/186/128 163/189/131 
f 129/155/97 162/188/130 163/189/131 
f 110/190/132 109/191/133 164/192/134 165/193/135 
f 109/191/133 111/194/136 166/195/137 164/192/134 
f 111/194/136 112/196/138 167/197/139 166/195/137 
f 112/196/138 113/198/140 168/199/141 167/197/139 
f 113/198/140 114/200/142 169/201/143 168/199/141 
f 114/200/142 115/202/144 170/203/145 169/201/143 
f 115/202/144 116/204/146 171/205/147 170/203/145 
f 116/204/146 117/206/148 172/207/149 171/205/147 
f 117/206/148 118/208/150 173/209/151 172/207/149 
f 118/208/150 119/210/152 174/211/153 173/209/151 
f 119/210/152 120/212/154 175/213/155 174/211/153 
f 120/212/154 121/214/156 176/215/157 175/213/155 
f 121/214/156 122/216/158 177/217/159 176/215/157 
f 122/216/158 123/218/160 178/219/161 177/217/159 
f 123/218/160 124/220/162 179/221/163 178/219/161 
f 124/220/162 125/222/164 180/223/165 179/221/163 
f 125/222/164 126/224/166 181/225/167 180/223/165 
f 126/224/166 110/190/132 165/193/135 181/225/167 
f 165/193/135 164/192/134 182/226/168 
f 164/192/134 166/195/137 182/226/168 
f 166/195/137 167/197/139 182/226/168 
f 167/197/139 168/199/141 182/226/168 
f 168/199/141 169/201/143 182/226/168 
f 169/201/143 170/203/145 182/226/168 
f 170/203/145 171/205/147 182/226/168 
f 171/205/147 172/207/149 182/226/168 
f 172/207/149 173/209/151 182/226/168 
f 173/209/151 174/211/153 182/226/168 
f 174/211/153 175/213/155 182/226/168 
f 175/213/155 176/215/157 182/226/168 
f 176/215/157 177/217/159 182/226/168 
f 177/217/159 178/219/161 182/226/168 
f 178/219/161 179/221/163 182/226/168 
f 179/221/163 180/223/165 182/226/168 
f 180/223/165 181/225/167 182/226/168 
f 181/225/167 165/193/135 182/226/168 
s 8
f 38/40/38 37/39/37 2/227/2 1/228/1 
f 128/229/3 127/230/4 4/4/4 3/3/3 
f 41/43/41 38/40/38 1/228/1 5/231/5 
f 127/230/4 131/232/6 6/6/6 4/4/4 
f 43/45/43 41/43/41 5/231/5 7/233/7 
f 131/232/6 133/234/8 8/8/8 6/6/6 
f 45/47/45 43/45/43 7/233/7 9/235/9 
f 133/234/8 135/236/10 10/10/10 8/8/8 
f 47/49/47 45/47/45 9/235/9 11/237/11 
f 135/236/10 137/238/12 12/12/12 10/10/10 
f 49/51/49 47/49/47 11/237/11 13/239/13 
f 137/238/12 139/240/14 14/14/14 12/12/12 
f 51/53/51 49/51/49 13/239/13 15/241/15 
f 139/240/14 141/242/16 16/16/16 14/14/14 
f 53/55/53 51/53/51 15/241/15 17/243/17 
f 141/242/16 143/244/18 18/18/18 16/16/16 
f 55/57/55 53/55/53 17/243/17 19/245/19 
f 143/244/18 145/246/91 20/20/20 18/18/18 
f 57/59/57 55/57/55 19/245/19 21/247/21 
f 145/246/91 147/248/92 22/22/22 20/20/20 
f 59/61/59 57/59/57 21/247/21 23/249/23 
f 147/248/92 149/250/24 24/24/24 22/22/22 
f 61/63/61 59/61/59 23/249/23 25/251/25 
f 149/250/24 151/252/26 26/26/26 24/24/24 
f 63/65/63 61/63/61 25/251/25 27/253/27 
f 151/252/26 153/254/28 28/28/28 26/26/26 
f 65/67/65 63/65/63 27/253/27 29/255/29 
f 153/254/28 155/256/93 30/30/30 28/28/28 
f 67/69/67 65/67/65 29/255/29 31/257/31 
f 155/256/93 157/258/94 32/32/32 30/30/30 
f 69/71/69 67/69/67 31/257/31 33/259/33 
f 157/258/94 159/260/34 34/34/34 32/32/32 
f 71/73/71 69/71/69 33/259/33 35/261/35 
f 159/260/34 161/262/36 36/36/36 34/34/34 
f 37/75/37 71/73/71 35/261/35 2/263/2 
f 161/262/36 128/264/3 3/38/3 36/36/36 
# 162 polygons - 36 triangles

