# 3ds Max Wavefront OBJ Exporter v0.97b - (c)2007 guruware
# File Created: 18.01.2013 15:44:56

#
# object wall01a
#

v  0.7381 -2.1028 2.0000
v  0.7381 -2.1028 -2.0000
v  0.7381 0.6987 -2.0000
v  0.7381 0.6987 2.0000
v  1.0000 4.2500 2.0000
v  1.0000 4.2500 -2.0000
v  0.3333 4.2500 -2.0000
v  0.3333 4.2500 2.0000
v  1.2381 4.0000 -2.0000
v  1.2381 4.0000 2.0000
v  1.2381 1.0343 2.0000
v  1.2381 1.0343 -2.0000
v  1.2381 -2.3669 2.0000
v  1.2381 -2.3669 -2.0000
v  -0.3000 4.0167 -2.0000
v  -0.3000 4.0167 2.0000
v  1.2381 -4.0000 2.0000
v  1.2381 -4.0000 -2.0000
# 18 vertices

vn 1.0000 0.0000 0.0000
vn 0.0000 1.0000 0.0000
vn 1.0000 -0.0000 0.0000
vn 0.4671 0.8842 0.0000
vn 0.5574 -0.8303 0.0000
vn 0.7241 0.6897 0.0000
vn -0.3457 0.9383 -0.0000
# 7 vertex normals

vt 0.0159 0.2378 0.0000
vt 0.5137 0.2378 0.0000
vt 0.5137 0.5420 0.0000
vt 0.0159 0.5420 0.0000
vt 0.9175 0.0115 0.0000
vt 0.9175 0.9834 0.0000
vt 0.7572 0.9834 0.0000
vt 0.7572 0.0115 0.0000
vt 0.5137 0.9780 0.0000
vt 0.0159 0.9780 0.0000
vt 0.0159 0.6074 0.0000
vt 0.5137 0.6074 0.0000
vt 0.0159 0.1769 0.0000
vt 0.5137 0.1769 0.0000
vt 0.9834 0.0115 0.0000
vt 0.9834 0.9834 0.0000
vt 0.6130 0.9834 0.0000
vt 0.6130 0.0115 0.0000
vt 0.0159 0.0022 0.0000
vt 0.5137 0.0022 0.0000
# 20 texture coords

g wall01a
s 1
f 1/1/1 2/2/1 3/3/1 
f 3/3/1 4/4/1 1/1/1 
s off
f 5/5/2 6/6/2 7/7/2 
f 7/7/2 8/8/2 5/5/2 
s 1
f 9/9/3 10/10/3 11/11/3 
f 11/11/3 12/12/3 9/9/3 
s off
f 13/13/4 14/14/4 2/2/4 
f 2/2/4 1/1/4 13/13/4 
f 12/12/5 11/11/5 4/4/5 
f 4/4/5 3/3/5 12/12/5 
f 10/15/6 9/16/6 6/6/6 
f 6/6/6 5/5/6 10/15/6 
f 15/17/7 16/18/7 8/8/7 
f 8/8/7 7/7/7 15/17/7 
f 14/14/1 13/13/1 17/19/1 
f 17/19/1 18/20/1 14/14/1 
# 16 faces

