# 3ds Max Wavefront OBJ Exporter v0.97b - (c)2007 guruware
# File Created: 31.01.2013 15:43:46

#
# object wall03a
#

v  0.7381 4.7488 -2.0000
v  0.7381 0.6987 6.0424
v  0.7381 -2.1028 6.0424
v  0.7381 1.9286 -2.0000
v  0.3333 8.2341 -2.0000
v  0.3333 4.1756 6.0424
v  1.0000 4.1756 6.0424
v  1.0000 8.2341 -2.0000
v  1.2381 1.0343 6.0424
v  1.2381 5.0845 -2.0000
v  1.2381 7.9841 -2.0000
v  1.2381 3.9256 6.0424
v  1.2381 -2.3669 6.0424
v  1.2381 1.6645 -2.0000
v  -0.3000 8.0007 -2.0000
v  -0.3000 3.9423 6.0424
v  1.2381 -4.0000 6.0424
v  1.2381 0.0314 -2.0000
# 18 vertices

vn 1.0000 0.0000 0.0000
vn 0.0000 0.8928 0.4505
vn 1.0000 -0.0000 -0.0000
vn 0.4270 0.8084 0.4052
vn 0.5142 -0.7660 -0.3858
vn 0.6839 0.6513 0.3287
vn -0.3124 0.8481 0.4280
# 7 vertex normals

vt 0.5137 0.5420 0.0000
vt 0.0159 0.5420 0.0000
vt 0.0159 0.2378 0.0000
vt 0.5137 0.2378 0.0000
vt 0.7572 0.9834 0.0000
vt 0.7572 0.0115 0.0000
vt 0.9175 0.0115 0.0000
vt 0.9175 0.9834 0.0000
vt 0.0159 0.6074 0.0000
vt 0.5137 0.6074 0.0000
vt 0.5137 0.9780 0.0000
vt 0.0159 0.9780 0.0000
vt 0.0159 0.1769 0.0000
vt 0.5137 0.1769 0.0000
vt 0.9834 0.0115 0.0000
vt 0.9834 0.9834 0.0000
vt 0.6130 0.9834 0.0000
vt 0.6130 0.0115 0.0000
vt 0.0159 0.0022 0.0000
vt 0.5137 0.0022 0.0000
# 20 texture coords

g wall03a
s 1
f 1/1/1 2/2/1 3/3/1 4/4/1 
s off
f 5/5/2 6/6/2 7/7/2 8/8/2 
s 1
f 9/9/3 10/10/3 11/11/3 12/12/3 
s off
f 4/4/4 3/3/4 13/13/4 14/14/4 
f 2/2/5 1/1/5 10/10/5 9/9/5 
f 8/8/6 7/7/6 12/15/6 11/16/6 
f 6/6/7 5/5/7 15/17/7 16/18/7 
f 17/19/1 18/20/1 14/14/1 13/13/1 
# 8 polygons

