# 3ds Max Wavefront OBJ Exporter v0.97b - (c)2007 guruware
# File Created: 27.10.2012 14:52:15

mtllib scifiWall01_ramp.mtl

#
# object scifiWall01_ramp
#

v  -5.0000 5.0000 -7.5000
v  -5.0000 -5.0000 7.5000
v  5.0000 -5.0000 7.5000
v  5.0000 5.0000 -7.5000
# 4 vertices

vn 0.0000 0.8321 0.5547
# 1 vertex normals

vt 0.0005 0.0005 0.9995
vt 0.0005 0.9995 0.0005
vt 0.9995 0.9995 0.0005
vt 0.9995 0.0005 0.9995
# 4 texture coords

g scifiWall01_ramp
usemtl Material__46
s 2
f 1/1/1 2/2/1 3/3/1 4/4/1 
# 1 polygons

